HIERARCHY
ROOT Hips
{
	OFFSET 0.000000 0.000000 0.000000 
	CHANNELS 6 Xposition Yposition Zposition Yrotation Zrotation Xrotation 
	JOINT Lumbar
	{
		OFFSET 0.000000 0.000000 0.000000 
		CHANNELS 3 Zrotation Xrotation Yrotation
		JOINT Neck
		{
			OFFSET 0.000000 0.445665 0.000000 
			CHANNELS 3 Zrotation Xrotation Yrotation
			End Site
			{
				OFFSET 0.000000 0.227535 0.000000 
			}
		}
		JOINT RightShoulder
		{
			OFFSET 0.019635 0.377685 0.194865 
			CHANNELS 3 Zrotation Xrotation Yrotation
			JOINT RightElbow
			{
				OFFSET 0.000000 -0.243375 0.000000 
				CHANNELS 2 Zrotation Yrotation
				JOINT RightWrist
				{
					OFFSET 0.000000 -0.264825 0.000000 
					CHANNELS 2 Zrotation Xrotation
					End Site
					{
						OFFSET 0.006600 -0.176220 0.000990 
					}
				}
			}
		}
		JOINT LeftShoulder
		{
			OFFSET 0.019635 0.377685 -0.194865 
			CHANNELS 3 Zrotation Xrotation Yrotation
			JOINT LeftElbow
			{
				OFFSET 0.000000 -0.243375 0.000000 
				CHANNELS 2 Zrotation Yrotation
				JOINT LeftWrist
				{
					OFFSET 0.000000 -0.264825 0.000000 
					CHANNELS 2 Zrotation Xrotation
					End Site
					{
						OFFSET 0.006600 -0.176220 -0.000990 
					}
				}
			}
		}
	}
	JOINT RightHip
	{
		OFFSET 0.052140 -0.069960 0.075570 
		CHANNELS 3 Zrotation Xrotation Yrotation
		JOINT RightKnee
		{
			OFFSET 0.000000 -0.402270 0.000000 
			CHANNELS 1 Zrotation
			JOINT RightAnkle
			{
				OFFSET 0.000000 -0.404085 0.000000 
				CHANNELS 3 Zrotation Xrotation Yrotation
				End Site
				{
					OFFSET 0.204105 -0.089430 0.008415 
				}
			}
		}
	}
	JOINT LeftHip
	{
		OFFSET 0.052140 -0.069960 -0.075570 
		CHANNELS 3 Zrotation Xrotation Yrotation
		JOINT LeftKnee
		{
			OFFSET 0.000000 -0.402270 0.000000 
			CHANNELS 1 Zrotation
			JOINT LeftAnkle
			{
				OFFSET 0.000000 -0.404085 0.000000 
				CHANNELS 3 Zrotation Xrotation Yrotation
				End Site
				{
					OFFSET 0.204105 -0.089430 -0.008415 
				}
			}
		}
	}
}
MOTION
Frames: 29
Frame Time: 0.02
0.05888 -0.91146 -0.03757 12.75126 9.05989 -14.00923 3.61526 3.21464 -0.12979 -26.00309 -1.19825 -2.11994 -24.26075 -54.95011 -29.16657 88.55495 82.64214 -9.95118 -3.59527 -12.1995 45.47492 28.94002 93.6872 -86.45208 -16.96529 4.05695 126.68092 -32.08546 -46.69601 -146.7079 -2.92244 33.09492 12.99902 126.68097 19.68509 46.69606 -147.07826 13.14418 -33.11486 -13.00546
0.06008 -0.91123 -0.03689 12.67711 8.86769 -13.65365 3.87394 3.09502 -0.20883 -25.88426 -1.25349 -2.11994 -24.6018 -55.0907 -29.56201 89.03991 82.60175 -10.30386 -3.85122 -12.5186 45.27139 29.43294 93.9669 -86.46618 -16.99356 4.0657 126.68092 -32.08545 -46.69601 -146.77562 -3.09037 33.09433 12.99883 126.68097 19.79234 46.69606 -147.07826 14.12287 -33.11487 -13.00546
0.0616 -0.91109 -0.03574 12.67209 8.70631 -13.27203 4.10871 2.9323 -0.30233 -25.78843 -1.33443 -2.11994 -25.00365 -55.12913 -29.98352 89.56883 82.70329 -10.87161 -4.22039 -12.84328 45.03958 29.94401 94.25033 -86.4733 -16.99862 4.0979 126.68092 -32.08545 -46.69601 -146.85403 -3.3448 33.09492 12.99902 126.68097 19.89287 46.69606 -147.07826 15.16683 -33.11496 -13.00549
0.06297 -0.91092 -0.0348 12.63746 8.5314 -12.90094 4.35148 2.79093 -0.38832 -25.68257 -1.40561 -2.11994 -25.37061 -55.2124 -30.38808 90.07764 82.73313 -11.30418 -4.51548 -13.16532 44.80924 30.44683 94.53349 -86.46166 -16.99018 4.1145 126.68092 -32.08544 -46.69601 -146.92528 -3.56651 33.09506 12.99907 126.68097 19.99952 46.69606 -147.07826 16.16837 -33.11501 -13.00551
0.06438 -0.91073 -0.0339 12.59723 8.35461 -12.5337 4.60637 2.64049 -0.47833 -25.57456 -1.46957 -2.11994 -25.77166 -55.30054 -30.81832 90.58722 82.78396 -11.88353 -4.9012 -13.48605 44.627 30.94954 94.80882 -86.53539 -17.07996 4.15137 126.68092 -32.08543 -46.69601 -147.00621 -3.76264 33.09484 12.99899 126.68097 20.09138 46.69606 -147.07826 17.2286 -33.11504 -13.00552
0.06578 -0.9106 -0.0328 12.58428 8.1892 -12.15283 4.82999 2.49958 -0.56304 -25.47686 -1.55415 -2.11994 -26.11427 -55.35578 -31.1988 91.10504 82.82823 -12.21489 -5.12857 -13.81155 44.33738 31.4562 95.1024 -86.43507 -16.96372 4.1525 126.68092 -32.08543 -46.69601 -147.06958 -4.03156 33.09564 12.99925 126.68097 20.2135 46.69606 -147.07826 18.17917 -33.11514 -13.00555
0.06707 -0.9106 -0.03127 12.63014 8.04524 -11.74175 4.97735 2.39291 -0.63369 -25.39934 -1.69175 -2.11994 -26.28709 -55.33479 -31.44618 91.64129 82.82181 -11.78001 -4.87052 -14.14845 43.76356 31.97687 95.44138 -85.82323 -16.24964 4.04083 126.68093 -32.08547 -46.69602 -147.08128 -4.48224 33.09919 13.0004 126.68097 20.41649 46.69606 -147.07826 18.82343 -33.11541 -13.00564
0.06833 -0.91065 -0.02956 12.7008 7.91208 -11.31804 5.09335 2.29815 -0.69782 -25.33194 -1.84866 -2.11994 -26.39734 -55.28599 -31.64006 92.18322 82.80496 -11.09476 -4.45337 -14.49027 43.08155 32.49935 95.79972 -85.04324 -15.3355 3.89392 126.68094 -32.08551 -46.69603 -147.07505 -5.00234 33.10371 13.00186 126.68097 20.65109 46.69606 -147.07826 19.35194 -33.11573 -13.00575
0.0696 -0.91069 -0.02793 12.75946 7.77553 -10.8995 5.22098 2.19968 -0.7622 -25.26162 -1.99511 -2.11994 -26.53164 -55.25722 -31.85114 92.71834 82.79272 -10.54423 -4.123 -14.83038 42.44587 33.01652 96.15194 -84.36213 -14.5357 3.76866 126.68095 -32.08555 -46.69604 -147.07741 -5.48935 33.10767 13.00314 126.68097 20.87439 46.69606 -147.07826 19.92509 -33.11602 -13.00584
0.07091 -0.9107 -0.0263 12.8233 7.63366 -10.48189 5.35878 2.09194 -0.83834 -25.18491 -2.1497 -2.11994 -26.68679 -55.19484 -32.09364 93.27263 82.78541 -9.91253 -3.73573 -15.16852 41.82193 33.55436 96.49244 -83.58552 -13.63626 3.62051 126.68096 -32.08559 -46.69605 -147.07827 -5.98671 33.11219 13.0046 126.68097 21.08486 46.69606 -147.07827 20.53538 -33.11635 -13.00595
0.07212 -0.91078 -0.02464 12.88178 7.505 -10.06038 5.46833 2.0076 -0.88851 -25.12377 -2.29144 -2.11994 -26.78261 -55.19571 -32.25707 93.78804 82.76405 -9.38783 -3.42735 -15.51176 41.14727 34.04798 96.86256 -82.96839 -12.89707 3.51123 126.68097 -32.08562 -46.69606 -147.07784 -6.47687 33.11575 13.00575 126.68097 21.32921 46.69606 -147.07827 21.03848 -33.11661 -13.00603
0.07305 -0.91106 -0.02299 12.91509 7.41044 -9.6256 5.50683 1.97935 -0.86635 -25.10158 -2.39416 -2.11994 -26.73098 -55.39081 -32.21911 94.192 82.7019 -9.21782 -3.37867 -15.8686 40.36719 34.42981 97.30412 -82.82991 -12.65039 3.51888 126.68097 -32.08563 -46.69606 -147.07841 -6.93784 33.11638 13.00596 126.68097 21.66333 46.69606 -147.07827 21.28548 -33.11666 -13.00605
0.07388 -0.91139 -0.02134 12.94262 7.32863 -9.18862 5.51817 1.97559 -0.81863 -25.09484 -2.48292 -2.11994 -26.62094 -55.64825 -32.10212 94.5569 82.62619 -9.16352 -3.4138 -16.23018 39.53839 34.76456 97.77595 -82.85833 -12.57194 3.56659 126.68097 -32.08562 -46.69606 -147.07822 -7.387 33.11601 13.00583 126.68097 22.02975 46.69606 -147.07827 21.42569 -33.11664 -13.00604
0.07475 -0.91168 -0.01969 12.97523 7.24062 -8.75634 5.54262 1.96441 -0.78397 -25.08199 -2.5772 -2.11994 -26.53705 -55.86977 -32.01918 94.94128 82.55889 -9.05641 -3.40806 -16.58916 38.72676 35.11425 98.23746 -82.81224 -12.41573 3.59513 126.68097 -32.08562 -46.69606 -147.07821 -7.83648 33.1161 13.00586 126.68097 22.37884 46.69606 -147.07827 21.60743 -33.11666 -13.00604
0.07563 -0.91203 -0.018 12.99831 7.15459 -8.30758 5.56299 1.93761 -0.74294 -25.06584 -2.6757 -2.11994 -26.45408 -56.12388 -31.94404 95.31873 82.48155 -8.94135 -3.4085 -16.95046 37.93251 35.49301 98.68471 -82.75451 -12.25752 3.62638 126.68097 -32.08563 -46.69606 -147.07827 -8.31096 33.11619 13.00589 126.68097 22.74028 46.69606 -147.07827 21.81651 -33.11667 -13.00605
0.07647 -0.91228 -0.0164 13.03963 7.06746 -7.89329 5.58547 1.94944 -0.70929 -25.05989 -2.76176 -2.11994 -26.35439 -56.32328 -31.83232 95.70107 82.42236 -8.87394 -3.41815 -17.30765 37.09169 35.79783 99.16913 -82.76299 -12.14672 3.66213 126.68097 -32.08562 -46.69606 -147.07822 -8.7281 33.11602 13.00584 126.68097 23.0832 46.69606 -147.07827 21.94257 -33.11666 -13.00605
0.07725 -0.91221 -0.01504 13.13176 6.97304 -7.57074 5.62357 2.05849 -0.70145 -25.08011 -2.81748 -2.11994 -26.23769 -56.3733 -31.65801 96.10778 82.41358 -8.90711 -3.43235 -17.65468 36.13664 35.92799 99.74368 -82.91294 -12.12025 3.69911 126.68097 -32.08561 -46.69606 -147.07821 -9.00237 33.11551 13.00567 126.68097 23.36713 46.69606 -147.07827 21.88465 -33.11668 -13.00605
0.07799 -0.91205 -0.01377 13.2425 6.87721 -7.28387 5.66431 2.20618 -0.70211 -25.10965 -2.86091 -2.11994 -26.10363 -56.36275 -31.44595 96.52034 82.42407 -8.98571 -3.45382 -17.99665 35.13659 35.98163 100.3551 -83.12449 -12.13737 3.73966 126.68096 -32.0856 -46.69606 -147.07818 -9.21652 33.11475 13.00543 126.68097 23.63104 46.69606 -147.07827 21.7439 -33.11668 -13.00605
0.07874 -0.91193 -0.01247 13.34524 6.78272 -6.98324 5.70191 2.3384 -0.69945 -25.13377 -2.90954 -2.11994 -25.96821 -56.36941 -31.23945 96.92951 82.42788 -9.04685 -3.473 -18.33976 34.15597 36.05897 100.9533 -83.30926 -12.13951 3.77969 126.68096 -32.08559 -46.69605 -147.07815 -9.44973 33.11402 13.00519 126.68097 23.90401 46.69606 -147.07827 21.62904 -33.11665 -13.00604
0.07952 -0.9118 -0.01113 13.4459 6.68576 -6.67178 5.74664 2.46263 -0.69358 -25.16364 -2.95948 -2.11994 -25.87015 -56.42322 -31.0807 97.34101 82.42276 -9.0995 -3.49065 -18.68915 33.17753 36.18291 101.53905 -83.49546 -12.12837 3.81653 126.68096 -32.08558 -46.69605 -147.07813 -9.7179 33.11359 13.00505 126.68097 24.17863 46.69606 -147.07827 21.55983 -33.11676 -13.00608
0.08023 -0.91168 -0.0099 13.55533 6.59341 -6.39186 5.77762 2.61236 -0.69677 -25.18328 -3.00371 -2.11994 -25.69044 -56.36183 -30.81257 97.7488 82.4406 -9.17778 -3.51221 -19.02264 32.18496 36.19035 102.15734 -83.69011 -12.15135 3.86023 126.68096 -32.08557 -46.69605 -147.07808 -9.89856 33.11252 13.00471 126.68097 24.44424 46.69606 -147.07827 21.37747 -33.11658 -13.00602
0.08076 -0.91161 -0.00892 13.68474 6.51455 -6.18628 5.76896 2.82289 -0.72289 -25.17462 -3.03722 -2.11994 -25.29428 -56.01201 -30.26921 98.15131 82.5206 -9.32759 -3.54202 -19.3263 31.16128 35.91087 102.87067 -83.90155 -12.27253 3.92274 126.68095 -32.08552 -46.69604 -147.07794 -9.85694 33.10949 13.00373 126.68097 24.69276 46.69606 -147.07826 20.9026 -33.11578 -13.00576
0.08121 -0.91156 -0.00805 13.82223 6.44029 -6.01201 5.74665 3.0576 -0.75793 -25.15482 -3.06505 -2.11994 -24.81621 -55.54532 -29.61433 98.54872 82.62252 -9.499 -3.57526 -19.61145 30.12599 35.51396 103.61221 -84.11706 -12.42317 3.99168 126.68094 -32.08547 -46.69604 -147.07776 -9.72857 33.10589 13.00257 126.68096 24.93202 46.69606 -147.07826 20.31797 -33.11468 -13.00541
0.08169 -0.9115 -0.00715 13.95589 6.36357 -5.826 5.73145 3.28129 -0.7891 -25.13862 -3.09424 -2.11994 -24.37252 -55.12203 -28.99918 98.9447 82.71215 -9.65204 -3.60704 -19.89691 29.09799 35.16059 104.33196 -84.32412 -12.5497 4.05704 126.68094 -32.08542 -46.69603 -147.0776 -9.63684 33.10275 13.00155 126.68096 25.17369 46.69605 -147.07826 19.78351 -33.11364 -13.00507
0.08219 -0.91144 -0.0062 14.09106 6.28824 -5.63055 5.71265 3.50671 -0.81993 -25.12904 -3.12828 -2.11994 -23.93922 -54.73746 -28.42832 99.35742 82.81207 -9.84235 -3.63869 -20.2174 28.05893 34.84627 105.09281 -84.56082 -12.72242 4.12543 126.68093 -32.08536 -46.69602 -147.07741 -9.5545 33.09876 13.00026 126.68096 25.42304 46.69605 -147.07826 19.24215 -33.11291 -13.00483
0.08263 -0.91139 -0.00537 14.22453 6.21127 -5.46194 5.69787 3.73348 -0.85325 -25.10275 -3.15084 -2.11994 -23.46629 -54.2455 -27.73995 99.73307 82.89575 -9.96017 -3.67132 -20.45934 27.04193 34.4234 105.77185 -84.73654 -12.80623 4.18883 126.68092 -32.08533 -46.69601 -147.07729 -9.4331 33.09638 12.99949 126.68096 25.65351 46.69605 -147.07826 18.69359 -33.11149 -13.00438
0.08298 -0.91138 -0.00481 14.35306 6.12736 -5.35798 5.69952 3.96002 -0.89318 -25.03445 -3.145 -2.11994 -22.89349 -53.48365 -26.74856 100.01541 82.92714 -9.86662 -3.70589 -20.49986 26.07898 33.73298 106.23849 -84.73675 -12.62892 4.23816 126.68093 -32.08536 -46.69602 -147.07741 -9.22292 33.09875 13.00026 126.68095 25.84227 46.69604 -147.07825 18.12367 -33.10787 -13.0032
0.08328 -0.91138 -0.00438 14.47904 6.04188 -5.2801 5.70533 4.18642 -0.93488 -24.94944 -3.12755 -2.11994 -22.28564 -52.61847 -25.64416 100.25907 82.94168 -9.70016 -3.74126 -20.46008 25.14075 32.93743 106.61788 -84.67616 -12.36242 4.28197 126.68094 -32.08542 -46.69603 -147.07761 -8.97738 33.10274 13.00155 126.68094 26.01097 46.69604 -147.07825 17.55611 -33.10362 -13.00183
0.0836 -0.91138 -0.0039 14.60513 5.95794 -5.19134 5.7079 4.41153 -0.97447 -24.87106 -3.1142 -2.11994 -21.70087 -51.80209 -24.59537 100.51539 82.96529 -9.57083 -3.77623 -20.44975 24.19767 32.18769 107.02355 -84.64722 -12.14205 4.32743 126.68094 -32.08547 -46.69604 -147.07777 -8.74941 33.10587 13.00256 126.68093 26.18353 46.69603 -147.07824 17.00633 -33.09992 -13.00063
